REM DIRINDEX 1\2\5,1\2\6,1\2\7,1\2\8,1\3\9,1\3\10,1\3\11,1\4\12,1\4\13,1\4\14,1\4\15,1\4\16
REM DIRNAME folder01,folder02,folder03,folder04,folder05,folder06,folder07,folder08,folder09,folder10,folder11,folder12,folder13,folder14,folder15,folder16
TITLE ""
FILE "1200_sec05_1564_1572.mp3" MP3
  TRACK 01 AUDIO
    TITLE "0:"
    INDEX 01 00:00:00
  TRACK 02 AUDIO
    TITLE "12:cjc034_10002"
    INDEX 01 00:00:17
  TRACK 03 AUDIO
    TITLE "0:"
    INDEX 01 00:01:36
  TRACK 04 AUDIO
    TITLE "13:cjc034_10003"
    INDEX 01 00:01:68
  TRACK 05 AUDIO
    TITLE "0:"
    INDEX 01 00:03:00
  TRACK 06 AUDIO
    TITLE "14:cjc034_10004"
    INDEX 01 00:03:33
  TRACK 07 AUDIO
    TITLE "0:"
    INDEX 01 00:04:50
  TRACK 08 AUDIO
    TITLE "15:cjc034_10005"
    INDEX 01 00:05:09
  TRACK 09 AUDIO
    TITLE "0:"
    INDEX 01 00:09:28
  TRACK 10 AUDIO
    TITLE "12:cjc034_10006"
    INDEX 01 00:10:61
  TRACK 11 AUDIO
    TITLE "0:"
    INDEX 01 00:12:07
  TRACK 12 AUDIO
    TITLE "13:cjc034_10007"
    INDEX 01 00:12:44
  TRACK 13 AUDIO
    TITLE "0:"
    INDEX 01 00:13:73
  TRACK 14 AUDIO
    TITLE "14:cjc034_10008"
    INDEX 01 00:14:33
  TRACK 15 AUDIO
    TITLE "0:"
    INDEX 01 00:15:52
  TRACK 16 AUDIO
    TITLE "15:cjc034_10009"
    INDEX 01 00:16:14
  TRACK 17 AUDIO
    TITLE "0:"
    INDEX 01 00:21:57
  TRACK 18 AUDIO
    TITLE "12:cjc034_10010"
    INDEX 01 00:23:16
  TRACK 19 AUDIO
    TITLE "0:"
    INDEX 01 00:24:35
  TRACK 20 AUDIO
    TITLE "13:cjc034_10011"
    INDEX 01 00:24:65
  TRACK 21 AUDIO
    TITLE "0:"
    INDEX 01 00:27:04
  TRACK 22 AUDIO
    TITLE "14:cjc034_10012"
    INDEX 01 00:27:39
  TRACK 23 AUDIO
    TITLE "0:"
    INDEX 01 00:28:55
  TRACK 24 AUDIO
    TITLE "15:cjc034_10013"
    INDEX 01 00:29:13
  TRACK 25 AUDIO
    TITLE "0:"
    INDEX 01 00:32:52
  TRACK 26 AUDIO
    TITLE "16:cjc034_10014"
    INDEX 01 00:34:08
  TRACK 27 AUDIO
    TITLE "0:"
    INDEX 01 00:35:49
  TRACK 28 AUDIO
    TITLE "12:cjc034_10015"
    INDEX 01 00:36:54
  TRACK 29 AUDIO
    TITLE "0:"
    INDEX 01 00:38:04
  TRACK 30 AUDIO
    TITLE "13:cjc034_10016"
    INDEX 01 00:38:37
  TRACK 31 AUDIO
    TITLE "0:"
    INDEX 01 00:40:34
  TRACK 32 AUDIO
    TITLE "14:cjc034_10017"
    INDEX 01 00:40:70
  TRACK 33 AUDIO
    TITLE "0:"
    INDEX 01 00:42:21
  TRACK 34 AUDIO
    TITLE "15:cjc034_10018"
    INDEX 01 00:42:53
  TRACK 35 AUDIO
    TITLE "0:"
    INDEX 01 00:47:19
  TRACK 36 AUDIO
    TITLE "12:cjc034_10019"
    INDEX 01 00:48:49
  TRACK 37 AUDIO
    TITLE "0:"
    INDEX 01 00:49:70
  TRACK 38 AUDIO
    TITLE "13:cjc034_10020"
    INDEX 01 00:50:29
  TRACK 39 AUDIO
    TITLE "0:"
    INDEX 01 00:52:51
  TRACK 40 AUDIO
    TITLE "14:cjc034_10021"
    INDEX 01 00:53:13
  TRACK 41 AUDIO
    TITLE "0:"
    INDEX 01 00:54:34
  TRACK 42 AUDIO
    TITLE "15:cjc034_10022"
    INDEX 01 00:54:68
  TRACK 43 AUDIO
    TITLE "0:"
    INDEX 01 01:00:04
  TRACK 44 AUDIO
    TITLE "12:cjc034_10023"
    INDEX 01 01:01:38
  TRACK 45 AUDIO
    TITLE "0:"
    INDEX 01 01:02:73
  TRACK 46 AUDIO
    TITLE "13:cjc034_10024"
    INDEX 01 01:03:33
  TRACK 47 AUDIO
    TITLE "0:"
    INDEX 01 01:07:72
  TRACK 48 AUDIO
    TITLE "14:cjc034_10025"
    INDEX 01 01:08:31
  TRACK 49 AUDIO
    TITLE "0:"
    INDEX 01 01:09:67
  TRACK 50 AUDIO
    TITLE "15:cjc034_10026"
    INDEX 01 01:10:24
  TRACK 51 AUDIO
    TITLE "0:"
    INDEX 01 01:14:74
  TRACK 52 AUDIO
    TITLE "12:cjc034_10027"
    INDEX 01 01:16:32
  TRACK 53 AUDIO
    TITLE "0:"
    INDEX 01 01:17:47
  TRACK 54 AUDIO
    TITLE "13:cjc034_10028"
    INDEX 01 01:18:04
  TRACK 55 AUDIO
    TITLE "0:"
    INDEX 01 01:20:16
  TRACK 56 AUDIO
    TITLE "14:cjc034_10029"
    INDEX 01 01:20:48
  TRACK 57 AUDIO
    TITLE "0:"
    INDEX 01 01:21:61
  TRACK 58 AUDIO
    TITLE "15:cjc034_10030"
    INDEX 01 01:22:21
  TRACK 59 AUDIO
    TITLE "0:"
    INDEX 01 01:25:51
  TRACK 60 AUDIO
    TITLE "12:cjc034_10031"
    INDEX 01 01:27:12
  TRACK 61 AUDIO
    TITLE "0:"
    INDEX 01 01:28:25
  TRACK 62 AUDIO
    TITLE "13:cjc034_10032"
    INDEX 01 01:28:55
  TRACK 63 AUDIO
    TITLE "0:"
    INDEX 01 01:33:64
  TRACK 64 AUDIO
    TITLE "14:cjc034_10033"
    INDEX 01 01:34:24
  TRACK 65 AUDIO
    TITLE "0:"
    INDEX 01 01:35:37
  TRACK 66 AUDIO
    TITLE "15:cjc034_10034"
    INDEX 01 01:35:71
  TRACK 67 AUDIO
    TITLE "0:"
    INDEX 01 01:41:52
  TRACK 68 AUDIO
    TITLE "12:cjc034_10035"
    INDEX 01 01:43:09
  TRACK 69 AUDIO
    TITLE "0:"
    INDEX 01 01:44:34
  TRACK 70 AUDIO
    TITLE "13:cjc034_10036"
    INDEX 01 01:44:66
  TRACK 71 AUDIO
    TITLE "0:"
    INDEX 01 01:47:01
  TRACK 72 AUDIO
    TITLE "14:cjc034_10037"
    INDEX 01 01:47:33
  TRACK 73 AUDIO
    TITLE "0:"
    INDEX 01 01:48:58
  TRACK 74 AUDIO
    TITLE "15:cjc034_10038"
    INDEX 01 01:49:14
  TRACK 75 AUDIO
    TITLE "0:"
    INDEX 01 01:52:59
